# MagicaVoxel @ Ephtracy

# group
o 

# material
mtllib zombie_woman_standing.mtl
usemtl palette

# normals
vn -1 0 0
vn 1 0 0
vn 0 0 1
vn 0 0 -1
vn 0 -1 0
vn 0 1 0

# texcoords
vt 0.0214844 0.5
vt 0.369141 0.5
vt 0.865234 0.5
vt 0.873047 0.5
vt 0.908203 0.5
vt 0.962891 0.5
vt 0.978516 0.5
vt 0.982422 0.5
vt 0.986328 0.5
vt 0.990234 0.5

# verts
v -0.8 1.8 0.3
v -0.8 1.8 0.1
v -0.8 2.1 0.3
v -0.8 2.1 0.1
v -0.7 1.7 0.3
v -0.7 1.7 0.1
v -0.7 1.8 0.3
v -0.7 1.8 0.1
v -0.7 1.8 -0.1
v -0.7 1.9 1.1
v -0.7 1.9 0.9
v -0.7 1.9 0.8
v -0.7 1.9 0.3
v -0.7 2 0.8
v -0.7 2 0.6
v -0.7 2.1 1.1
v -0.7 2.1 0.9
v -0.7 2.1 0.8
v -0.7 2.1 0.6
v -0.7 2.1 0.3
v -0.7 2.1 0.1
v -0.7 2.1 -0.1
v -0.7 2.2 0.3
v -0.7 2.2 0.1
v -0.4 0 0.2
v -0.4 0 -0.3
v -0.4 0.1 0.2
v -0.4 0.1 0
v -0.4 0.5 0.1
v -0.4 0.5 0
v -0.4 0.5 -0.3
v -0.4 0.5 -0.4
v -0.4 0.6 0.1
v -0.4 0.6 0
v -0.4 0.9 0.1
v -0.4 0.9 -0.1
v -0.4 0.9 -0.2
v -0.4 0.9 -0.4
v -0.4 1 0.1
v -0.4 1 -0.1
v -0.4 1 -0.2
v -0.4 1 -0.4
v -0.4 1.7 0.1
v -0.4 1.8 0.1
v -0.4 1.8 -0.1
v -0.4 2.1 -0.1
v -0.4 2.1 -0.4
v -0.2 1.9 -0.4
v -0.2 1.9 -0.5
v -0.2 2.1 0.4
v -0.2 2.1 0.1
v -0.2 2.1 -0.3
v -0.2 2.1 -0.4
v -0.2 2.2 0.4
v -0.2 2.2 0.3
v -0.2 2.2 -0.2
v -0.2 2.2 -0.3
v -0.2 2.2 -0.4
v -0.2 2.2 -0.5
v -0.2 2.3 0.3
v -0.2 2.3 -0.2
v -0.2 2.3 -0.3
v -0.2 2.3 -0.4
v -0.2 2.4 0.4
v -0.2 2.4 0.3
v -0.2 2.4 -0.1
v -0.2 2.4 -0.3
v -0.2 2.6 0.4
v -0.2 2.6 -0.1
v 0.2 0 0.2
v 0.2 0 -0.3
v 0.2 0.1 0.2
v 0.2 0.1 0
v 0.2 0.5 0
v 0.2 0.5 -0.3
v 0.2 0.8 0
v 0.2 0.8 -0.3
v 0.4 1.8 0.3
v 0.4 1.8 0.1
v 0.4 2.1 0.3
v 0.4 2.1 0.1
v 0.5 1.7 0.3
v 0.5 1.7 0.1
v 0.5 1.8 0.3
v 0.5 1.8 0.1
v 0.5 1.9 1.1
v 0.5 1.9 0.3
v 0.5 2 0.8
v 0.5 2 0.4
v 0.5 2.1 1.1
v 0.5 2.1 0.8
v 0.5 2.1 0.4
v 0.5 2.1 0.3
v 0.5 2.1 0.1
v 0.5 2.2 0.3
v 0.5 2.2 0.1
v -0.4 1.7 0.3
v -0.4 1.7 0.1
v -0.4 1.8 0.3
v -0.4 1.8 0.1
v -0.4 1.9 1.1
v -0.4 1.9 0.9
v -0.4 1.9 0.8
v -0.4 1.9 0.3
v -0.4 2 0.6
v -0.4 2 0.4
v -0.4 2.1 1.1
v -0.4 2.1 0.9
v -0.4 2.1 0.8
v -0.4 2.1 0.6
v -0.4 2.1 0.4
v -0.4 2.1 0.3
v -0.4 2.1 0.1
v -0.4 2.2 0.3
v -0.4 2.2 0.1
v -0.3 1.8 0.3
v -0.3 1.8 0.1
v -0.3 2.1 0.3
v -0.3 2.1 0.1
v -0.1 0 0.2
v -0.1 0 -0.3
v -0.1 0.1 0.2
v -0.1 0.1 0
v -0.1 0.4 0
v -0.1 0.4 -0.1
v -0.1 0.5 0
v -0.1 0.5 -0.1
v -0.1 0.5 -0.3
v -0.1 0.8 0
v -0.1 0.8 -0.3
v 0.3 1.9 -0.4
v 0.3 1.9 -0.5
v 0.3 2.1 0.4
v 0.3 2.1 0.3
v 0.3 2.1 0.1
v 0.3 2.1 -0.3
v 0.3 2.1 -0.4
v 0.3 2.2 0.4
v 0.3 2.2 0.3
v 0.3 2.2 -0.2
v 0.3 2.2 -0.3
v 0.3 2.2 -0.4
v 0.3 2.2 -0.5
v 0.3 2.3 0.3
v 0.3 2.3 -0.2
v 0.3 2.3 -0.3
v 0.3 2.3 -0.4
v 0.3 2.4 -0.1
v 0.3 2.4 -0.3
v 0.3 2.5 0.4
v 0.3 2.5 0.3
v 0.3 2.6 0.4
v 0.3 2.6 0.3
v 0.3 2.6 -0.1
v 0.5 0 0.2
v 0.5 0 -0.3
v 0.5 0.1 0.2
v 0.5 0.1 0
v 0.5 0.5 0.1
v 0.5 0.5 0
v 0.5 0.5 -0.3
v 0.5 0.5 -0.4
v 0.5 0.9 0.1
v 0.5 0.9 -0.1
v 0.5 0.9 -0.2
v 0.5 0.9 -0.4
v 0.5 1 0.1
v 0.5 1 0
v 0.5 1 -0.1
v 0.5 1 -0.2
v 0.5 1 -0.4
v 0.5 1.4 0.1
v 0.5 1.4 0
v 0.5 1.7 0.1
v 0.5 1.8 0.1
v 0.5 1.8 -0.1
v 0.5 2.1 -0.1
v 0.5 2.1 -0.4
v 0.8 1.7 0.3
v 0.8 1.7 0.1
v 0.8 1.8 0.3
v 0.8 1.8 0.1
v 0.8 1.8 -0.1
v 0.8 1.9 1.1
v 0.8 1.9 0.3
v 0.8 2.1 1.1
v 0.8 2.1 0.3
v 0.8 2.1 0.1
v 0.8 2.1 -0.1
v 0.8 2.2 0.3
v 0.8 2.2 0.1
v 0.9 1.8 0.3
v 0.9 1.8 0.1
v 0.9 2.1 0.3
v 0.9 2.1 0.1
v -0.7 1.9 1.1
v -0.7 2.1 1.1
v -0.4 1.9 1.1
v -0.4 2.1 1.1
v 0.5 1.9 1.1
v 0.5 2.1 1.1
v 0.8 1.9 1.1
v 0.8 2.1 1.1
v -0.2 2.1 0.4
v -0.2 2.2 0.4
v -0.2 2.4 0.4
v -0.2 2.6 0.4
v -0.1 2.2 0.4
v -0.1 2.4 0.4
v 0.1 2.2 0.4
v 0.1 2.3 0.4
v 0.1 2.4 0.4
v 0.1 2.6 0.4
v 0.2 2.1 0.4
v 0.2 2.2 0.4
v 0.2 2.3 0.4
v 0.2 2.4 0.4
v 0.2 2.5 0.4
v 0.3 2.1 0.4
v 0.3 2.2 0.4
v 0.3 2.5 0.4
v 0.3 2.6 0.4
v -0.8 1.8 0.3
v -0.8 2.1 0.3
v -0.7 1.7 0.3
v -0.7 1.8 0.3
v -0.7 1.9 0.3
v -0.7 2.1 0.3
v -0.7 2.2 0.3
v -0.4 1.7 0.3
v -0.4 1.8 0.3
v -0.4 1.9 0.3
v -0.4 2.1 0.3
v -0.4 2.2 0.3
v -0.3 1.8 0.3
v -0.3 2.1 0.3
v 0.4 1.8 0.3
v 0.4 2.1 0.3
v 0.5 1.7 0.3
v 0.5 1.8 0.3
v 0.5 1.9 0.3
v 0.5 2.1 0.3
v 0.5 2.2 0.3
v 0.8 1.7 0.3
v 0.8 1.8 0.3
v 0.8 1.9 0.3
v 0.8 2.1 0.3
v 0.8 2.2 0.3
v 0.9 1.8 0.3
v 0.9 2.1 0.3
v -0.4 0 0.2
v -0.4 0.1 0.2
v -0.1 0 0.2
v -0.1 0.1 0.2
v 0.2 0 0.2
v 0.2 0.1 0.2
v 0.5 0 0.2
v 0.5 0.1 0.2
v -0.4 0.5 0.1
v -0.4 0.6 0.1
v -0.4 0.9 0.1
v -0.4 1 0.1
v -0.4 1.7 0.1
v -0.4 1.8 0.1
v -0.3 0.6 0.1
v -0.3 0.7 0.1
v -0.3 1.8 0.1
v -0.3 2.1 0.1
v -0.2 0.6 0.1
v -0.2 0.7 0.1
v -0.2 0.9 0.1
v -0.2 1 0.1
v -0.2 2.1 0.1
v -0.1 0.5 0.1
v -0.1 0.6 0.1
v -0.1 0.9 0.1
v -0.1 1 0.1
v -0.1 1.2 0.1
v -0.1 1.3 0.1
v -0.1 1.5 0.1
v -0.1 1.6 0.1
v -0.1 1.8 0.1
v -0.1 1.9 0.1
v 5.96046e-08 0.9 0.1
v 5.96046e-08 1 0.1
v 5.96046e-08 1.2 0.1
v 5.96046e-08 1.3 0.1
v 5.96046e-08 1.5 0.1
v 5.96046e-08 1.6 0.1
v 5.96046e-08 1.8 0.1
v 5.96046e-08 1.9 0.1
v 0.1 0.9 0.1
v 0.1 1 0.1
v 0.2 0.9 0.1
v 0.2 1 0.1
v 0.3 0.9 0.1
v 0.3 1 0.1
v 0.3 1.4 0.1
v 0.3 2.1 0.1
v 0.4 1.8 0.1
v 0.4 2.1 0.1
v 0.5 0.5 0.1
v 0.5 0.9 0.1
v 0.5 1 0.1
v 0.5 1.4 0.1
v 0.5 1.7 0.1
v 0.5 1.8 0.1
v -0.4 0.1 0
v -0.4 0.5 0
v -0.3 0.3 0
v -0.3 0.5 0
v -0.2 0.3 0
v -0.2 0.4 0
v -0.1 0.1 0
v -0.1 0.4 0
v -0.1 0.5 0
v 0.2 0.1 0
v 0.2 0.5 0
v 0.5 0.1 0
v 0.5 0.5 0
v -0.1 0.5 -0.3
v -0.1 0.8 -0.3
v 0.2 0.5 -0.3
v 0.2 0.8 -0.3
v -0.8 1.8 0.1
v -0.8 2.1 0.1
v -0.7 1.7 0.1
v -0.7 1.8 0.1
v -0.7 2.1 0.1
v -0.7 2.2 0.1
v -0.4 1.7 0.1
v -0.4 1.8 0.1
v -0.4 2.1 0.1
v -0.4 2.2 0.1
v 0.5 1.7 0.1
v 0.5 1.8 0.1
v 0.5 2.1 0.1
v 0.5 2.2 0.1
v 0.8 1.7 0.1
v 0.8 1.8 0.1
v 0.8 2.1 0.1
v 0.8 2.2 0.1
v 0.9 1.8 0.1
v 0.9 2.1 0.1
v -0.1 0.5 0
v -0.1 0.8 0
v 0.2 0.5 0
v 0.2 0.8 0
v -0.7 1.8 -0.1
v -0.7 2.1 -0.1
v -0.4 1.8 -0.1
v -0.4 2.1 -0.1
v -0.2 2.4 -0.1
v -0.2 2.6 -0.1
v 0.3 2.4 -0.1
v 0.3 2.6 -0.1
v 0.5 1.8 -0.1
v 0.5 2.1 -0.1
v 0.8 1.8 -0.1
v 0.8 2.1 -0.1
v -0.4 0 -0.3
v -0.4 0.5 -0.3
v -0.2 2.3 -0.3
v -0.2 2.4 -0.3
v -0.1 0 -0.3
v -0.1 0.5 -0.3
v 0.2 0 -0.3
v 0.2 0.5 -0.3
v 0.3 2.3 -0.3
v 0.3 2.4 -0.3
v 0.5 0 -0.3
v 0.5 0.5 -0.3
v -0.4 0.5 -0.4
v -0.4 0.9 -0.4
v -0.4 1 -0.4
v -0.4 2.1 -0.4
v -0.2 0.9 -0.4
v -0.2 1 -0.4
v -0.2 1.9 -0.4
v -0.2 2.1 -0.4
v -0.2 2.2 -0.4
v -0.2 2.3 -0.4
v -0.1 0.9 -0.4
v -0.1 1 -0.4
v 0.2 0.9 -0.4
v 0.2 1 -0.4
v 0.3 0.9 -0.4
v 0.3 1 -0.4
v 0.3 1.9 -0.4
v 0.3 2.1 -0.4
v 0.3 2.2 -0.4
v 0.3 2.3 -0.4
v 0.5 0.5 -0.4
v 0.5 0.9 -0.4
v 0.5 1 -0.4
v 0.5 2.1 -0.4
v -0.2 1.9 -0.5
v -0.2 2.2 -0.5
v 0.3 1.9 -0.5
v 0.3 2.2 -0.5
v -0.4 0 0.2
v -0.1 0 0.2
v 0.2 0 0.2
v 0.5 0 0.2
v -0.4 0 -0.3
v -0.1 0 -0.3
v 0.2 0 -0.3
v 0.5 0 -0.3
v -0.4 0.5 0.1
v -0.1 0.5 0.1
v 0.5 0.5 0.1
v -0.4 0.5 0
v -0.3 0.5 0
v -0.1 0.5 0
v 0.2 0.5 0
v 0.5 0.5 0
v -0.4 0.5 -0.3
v -0.1 0.5 -0.3
v 0.2 0.5 -0.3
v 0.5 0.5 -0.3
v -0.4 0.5 -0.4
v 0.5 0.5 -0.4
v -0.1 0.8 0
v 0.2 0.8 0
v -0.1 0.8 -0.3
v 0.2 0.8 -0.3
v -0.7 1.7 0.3
v -0.4 1.7 0.3
v 0.5 1.7 0.3
v 0.8 1.7 0.3
v -0.7 1.7 0.1
v -0.4 1.7 0.1
v 0.5 1.7 0.1
v 0.8 1.7 0.1
v -0.8 1.8 0.3
v -0.7 1.8 0.3
v -0.4 1.8 0.3
v -0.3 1.8 0.3
v 0.4 1.8 0.3
v 0.5 1.8 0.3
v 0.8 1.8 0.3
v 0.9 1.8 0.3
v -0.8 1.8 0.1
v -0.7 1.8 0.1
v -0.4 1.8 0.1
v -0.3 1.8 0.1
v 0.4 1.8 0.1
v 0.5 1.8 0.1
v 0.8 1.8 0.1
v 0.9 1.8 0.1
v -0.7 1.8 -0.1
v -0.4 1.8 -0.1
v 0.5 1.8 -0.1
v 0.8 1.8 -0.1
v -0.7 1.9 1.1
v -0.4 1.9 1.1
v 0.5 1.9 1.1
v 0.8 1.9 1.1
v -0.7 1.9 0.9
v -0.4 1.9 0.9
v -0.7 1.9 0.8
v -0.4 1.9 0.8
v -0.7 1.9 0.3
v -0.4 1.9 0.3
v 0.5 1.9 0.3
v 0.8 1.9 0.3
v -0.2 1.9 -0.4
v 0.3 1.9 -0.4
v -0.2 1.9 -0.5
v 0.3 1.9 -0.5
v -0.2 2.1 0.4
v 0.2 2.1 0.4
v 0.3 2.1 0.4
v 0.2 2.1 0.3
v 0.3 2.1 0.3
v -0.2 2.1 0.1
v 0.3 2.1 0.1
v -0.4 0.1 0.2
v -0.1 0.1 0.2
v 0.2 0.1 0.2
v 0.5 0.1 0.2
v -0.4 0.1 0
v -0.1 0.1 0
v 0.2 0.1 0
v 0.5 0.1 0
v -0.7 2.1 1.1
v -0.4 2.1 1.1
v 0.5 2.1 1.1
v 0.8 2.1 1.1
v -0.7 2.1 0.9
v -0.6 2.1 0.9
v -0.5 2.1 0.9
v -0.4 2.1 0.9
v -0.7 2.1 0.8
v -0.6 2.1 0.8
v -0.5 2.1 0.8
v -0.4 2.1 0.8
v 0.5 2.1 0.8
v 0.6 2.1 0.8
v 0.6 2.1 0.7
v 0.7 2.1 0.7
v -0.7 2.1 0.6
v -0.5 2.1 0.6
v -0.4 2.1 0.6
v -0.5 2.1 0.4
v -0.4 2.1 0.4
v 0.5 2.1 0.4
v 0.7 2.1 0.4
v -0.8 2.1 0.3
v -0.7 2.1 0.3
v -0.4 2.1 0.3
v -0.3 2.1 0.3
v 0.4 2.1 0.3
v 0.5 2.1 0.3
v 0.8 2.1 0.3
v 0.9 2.1 0.3
v -0.8 2.1 0.1
v -0.7 2.1 0.1
v -0.4 2.1 0.1
v -0.3 2.1 0.1
v -0.2 2.1 0.1
v 0.3 2.1 0.1
v 0.4 2.1 0.1
v 0.5 2.1 0.1
v 0.8 2.1 0.1
v 0.9 2.1 0.1
v -0.7 2.1 -0.1
v -0.4 2.1 -0.1
v 0.5 2.1 -0.1
v 0.8 2.1 -0.1
v -0.2 2.1 -0.3
v 0.3 2.1 -0.3
v -0.4 2.1 -0.4
v -0.2 2.1 -0.4
v 0.3 2.1 -0.4
v 0.5 2.1 -0.4
v -0.7 2.2 0.3
v -0.4 2.2 0.3
v 0.5 2.2 0.3
v 0.8 2.2 0.3
v -0.7 2.2 0.1
v -0.4 2.2 0.1
v 0.5 2.2 0.1
v 0.8 2.2 0.1
v -0.2 2.2 -0.4
v 0.3 2.2 -0.4
v -0.2 2.2 -0.5
v 0.3 2.2 -0.5
v -0.2 2.3 -0.3
v 0.3 2.3 -0.3
v -0.2 2.3 -0.4
v 0.3 2.3 -0.4
v -0.2 2.4 -0.1
v 0.3 2.4 -0.1
v -0.2 2.4 -0.3
v 0.3 2.4 -0.3
v -0.2 2.6 0.4
v 0.1 2.6 0.4
v 0.3 2.6 0.4
v 0.1 2.6 0.3
v 0.3 2.6 0.3
v -0.2 2.6 -0.1
v 0.3 2.6 -0.1

# faces
f 3/6/1 2/6/1 1/6/1
f 4/6/1 2/6/1 3/6/1
f 7/6/1 6/6/1 5/6/1
f 8/6/1 6/6/1 7/6/1
f 14/2/1 12/2/1 11/2/1
f 14/5/1 13/5/1 12/5/1
f 15/5/1 13/5/1 14/5/1
f 16/5/1 11/5/1 10/5/1
f 17/2/1 14/2/1 11/2/1
f 17/5/1 11/5/1 16/5/1
f 18/3/1 15/3/1 14/3/1
f 18/2/1 14/2/1 17/2/1
f 19/5/1 13/5/1 15/5/1
f 19/3/1 15/3/1 18/3/1
f 20/5/1 13/5/1 19/5/1
f 21/6/1 9/6/1 8/6/1
f 22/6/1 9/6/1 21/6/1
f 23/6/1 21/6/1 20/6/1
f 24/6/1 21/6/1 23/6/1
f 27/5/1 26/5/1 25/5/1
f 28/5/1 26/5/1 27/5/1
f 30/5/1 26/5/1 28/5/1
f 31/5/1 26/5/1 30/5/1
f 33/3/1 30/3/1 29/3/1
f 34/10/1 32/10/1 31/10/1
f 34/3/1 30/3/1 33/3/1
f 34/10/1 31/10/1 30/10/1
f 35/10/1 34/10/1 33/10/1
f 36/10/1 32/10/1 34/10/1
f 36/10/1 34/10/1 35/10/1
f 37/10/1 32/10/1 36/10/1
f 38/10/1 32/10/1 37/10/1
f 39/2/1 36/2/1 35/2/1
f 40/10/1 37/10/1 36/10/1
f 40/2/1 36/2/1 39/2/1
f 41/2/1 38/2/1 37/2/1
f 41/10/1 37/10/1 40/10/1
f 42/2/1 38/2/1 41/2/1
f 43/6/1 40/6/1 39/6/1
f 43/6/1 41/6/1 40/6/1
f 43/6/1 42/6/1 41/6/1
f 44/6/1 42/6/1 43/6/1
f 45/6/1 42/6/1 44/6/1
f 46/6/1 42/6/1 45/6/1
f 47/6/1 42/6/1 46/6/1
f 53/1/1 49/1/1 48/1/1
f 54/5/1 52/5/1 51/5/1
f 54/5/1 51/5/1 50/5/1
f 55/5/1 52/5/1 54/5/1
f 56/5/1 52/5/1 55/5/1
f 57/1/1 53/1/1 52/1/1
f 57/5/1 52/5/1 56/5/1
f 58/1/1 49/1/1 53/1/1
f 58/1/1 53/1/1 57/1/1
f 59/1/1 49/1/1 58/1/1
f 60/5/1 56/5/1 55/5/1
f 60/3/1 55/3/1 54/3/1
f 61/1/1 57/1/1 56/1/1
f 61/5/1 56/5/1 60/5/1
f 61/1/1 58/1/1 57/1/1
f 62/1/1 58/1/1 61/1/1
f 63/1/1 58/1/1 62/1/1
f 64/3/1 60/3/1 54/3/1
f 65/1/1 61/1/1 60/1/1
f 65/3/1 60/3/1 64/3/1
f 65/1/1 62/1/1 61/1/1
f 66/1/1 62/1/1 65/1/1
f 67/1/1 62/1/1 66/1/1
f 68/1/1 65/1/1 64/1/1
f 68/1/1 66/1/1 65/1/1
f 69/1/1 66/1/1 68/1/1
f 72/5/1 71/5/1 70/5/1
f 73/5/1 71/5/1 72/5/1
f 74/5/1 71/5/1 73/5/1
f 75/5/1 71/5/1 74/5/1
f 76/5/1 75/5/1 74/5/1
f 77/5/1 75/5/1 76/5/1
f 80/6/1 79/6/1 78/6/1
f 81/6/1 79/6/1 80/6/1
f 84/6/1 83/6/1 82/6/1
f 85/6/1 83/6/1 84/6/1
f 88/5/1 87/5/1 86/5/1
f 89/5/1 87/5/1 88/5/1
f 90/5/1 88/5/1 86/5/1
f 91/3/1 89/3/1 88/3/1
f 91/5/1 88/5/1 90/5/1
f 92/5/1 87/5/1 89/5/1
f 92/3/1 89/3/1 91/3/1
f 93/5/1 87/5/1 92/5/1
f 95/6/1 94/6/1 93/6/1
f 96/6/1 94/6/1 95/6/1
f 97/6/2 98/6/2 99/6/2
f 99/6/2 98/6/2 100/6/2
f 103/5/2 104/5/2 105/5/2
f 105/5/2 104/5/2 106/5/2
f 101/5/2 102/5/2 107/5/2
f 102/2/2 103/2/2 108/2/2
f 107/5/2 102/5/2 108/5/2
f 103/5/2 105/5/2 109/5/2
f 108/2/2 103/2/2 109/2/2
f 105/3/2 106/3/2 110/3/2
f 109/5/2 105/5/2 110/5/2
f 106/5/2 104/5/2 111/5/2
f 110/3/2 106/3/2 111/3/2
f 111/5/2 104/5/2 112/5/2
f 112/6/2 113/6/2 114/6/2
f 114/6/2 113/6/2 115/6/2
f 116/6/2 117/6/2 118/6/2
f 118/6/2 117/6/2 119/6/2
f 120/5/2 121/5/2 122/5/2
f 122/5/2 121/5/2 123/5/2
f 123/5/2 121/5/2 124/5/2
f 124/5/2 121/5/2 125/5/2
f 124/3/2 125/3/2 126/3/2
f 125/5/2 121/5/2 127/5/2
f 126/3/2 125/3/2 127/3/2
f 127/5/2 121/5/2 128/5/2
f 126/5/2 127/5/2 129/5/2
f 127/5/2 128/5/2 129/5/2
f 129/5/2 128/5/2 130/5/2
f 131/1/2 132/1/2 137/1/2
f 133/3/2 134/3/2 138/3/2
f 135/5/2 136/5/2 139/5/2
f 138/3/2 134/3/2 139/3/2
f 134/5/2 135/5/2 139/5/2
f 139/5/2 136/5/2 140/5/2
f 136/1/2 137/1/2 141/1/2
f 140/5/2 136/5/2 141/5/2
f 137/1/2 132/1/2 142/1/2
f 141/1/2 137/1/2 142/1/2
f 142/1/2 132/1/2 143/1/2
f 139/5/2 140/5/2 144/5/2
f 138/5/2 139/5/2 144/5/2
f 140/1/2 141/1/2 145/1/2
f 144/5/2 140/5/2 145/5/2
f 141/1/2 142/1/2 145/1/2
f 145/1/2 142/1/2 146/1/2
f 146/1/2 142/1/2 147/1/2
f 144/1/2 145/1/2 148/1/2
f 145/1/2 146/1/2 148/1/2
f 148/1/2 146/1/2 149/1/2
f 138/5/2 144/5/2 150/5/2
f 144/1/2 148/1/2 151/1/2
f 150/5/2 144/5/2 151/5/2
f 150/3/2 151/3/2 152/3/2
f 151/1/2 148/1/2 153/1/2
f 152/3/2 151/3/2 153/3/2
f 153/1/2 148/1/2 154/1/2
f 155/5/2 156/5/2 157/5/2
f 157/5/2 156/5/2 158/5/2
f 158/5/2 156/5/2 160/5/2
f 160/5/2 156/5/2 161/5/2
f 159/10/2 160/10/2 163/10/2
f 161/10/2 162/10/2 163/10/2
f 160/10/2 161/10/2 163/10/2
f 163/10/2 162/10/2 164/10/2
f 164/10/2 162/10/2 165/10/2
f 165/10/2 162/10/2 166/10/2
f 163/2/2 164/2/2 167/2/2
f 167/2/2 164/2/2 168/2/2
f 164/10/2 165/10/2 169/10/2
f 168/2/2 164/2/2 169/2/2
f 165/2/2 166/2/2 170/2/2
f 169/10/2 165/10/2 170/10/2
f 170/2/2 166/2/2 171/2/2
f 167/3/2 168/3/2 172/3/2
f 168/6/2 169/6/2 173/6/2
f 172/3/2 168/3/2 173/3/2
f 169/6/2 170/6/2 173/6/2
f 170/6/2 171/6/2 173/6/2
f 172/6/2 173/6/2 174/6/2
f 174/6/2 173/6/2 175/6/2
f 173/6/2 171/6/2 176/6/2
f 175/6/2 173/6/2 176/6/2
f 176/6/2 171/6/2 177/6/2
f 177/6/2 171/6/2 178/6/2
f 179/6/2 180/6/2 181/6/2
f 181/6/2 180/6/2 182/6/2
f 184/5/2 185/5/2 186/5/2
f 186/5/2 185/5/2 187/5/2
f 182/6/2 183/6/2 188/6/2
f 188/6/2 183/6/2 189/6/2
f 187/6/2 188/6/2 190/6/2
f 190/6/2 188/6/2 191/6/2
f 192/6/2 193/6/2 194/6/2
f 194/6/2 193/6/2 195/6/2
f 198/5/3 197/5/3 196/5/3
f 199/5/3 197/5/3 198/5/3
f 202/5/3 201/5/3 200/5/3
f 203/5/3 201/5/3 202/5/3
f 208/5/3 205/5/3 204/5/3
f 208/3/3 206/3/3 205/3/3
f 209/1/3 207/1/3 206/1/3
f 209/3/3 206/3/3 208/3/3
f 210/5/3 208/5/3 204/5/3
f 210/5/3 209/5/3 208/5/3
f 211/5/3 209/5/3 210/5/3
f 212/1/3 207/1/3 209/1/3
f 212/5/3 209/5/3 211/5/3
f 213/1/3 207/1/3 212/1/3
f 214/5/3 210/5/3 204/5/3
f 215/3/3 211/3/3 210/3/3
f 215/5/3 210/5/3 214/5/3
f 216/5/3 212/5/3 211/5/3
f 216/3/3 211/3/3 215/3/3
f 217/3/3 213/3/3 212/3/3
f 217/5/3 212/5/3 216/5/3
f 218/3/3 213/3/3 217/3/3
f 219/3/3 215/3/3 214/3/3
f 220/5/3 216/5/3 215/5/3
f 220/3/3 215/3/3 219/3/3
f 220/5/3 217/5/3 216/5/3
f 220/5/3 218/5/3 217/5/3
f 221/3/3 213/3/3 218/3/3
f 221/5/3 218/5/3 220/5/3
f 222/3/3 213/3/3 221/3/3
f 226/6/3 224/6/3 223/6/3
f 227/6/3 224/6/3 226/6/3
f 228/6/3 224/6/3 227/6/3
f 230/6/3 226/6/3 225/6/3
f 230/6/3 227/6/3 226/6/3
f 231/6/3 227/6/3 230/6/3
f 232/6/3 227/6/3 231/6/3
f 233/6/3 229/6/3 228/6/3
f 234/6/3 229/6/3 233/6/3
f 235/6/3 232/6/3 231/6/3
f 235/6/3 233/6/3 232/6/3
f 236/6/3 233/6/3 235/6/3
f 240/6/3 238/6/3 237/6/3
f 241/6/3 238/6/3 240/6/3
f 242/6/3 238/6/3 241/6/3
f 244/6/3 240/6/3 239/6/3
f 244/6/3 241/6/3 240/6/3
f 245/6/3 241/6/3 244/6/3
f 246/6/3 241/6/3 245/6/3
f 247/6/3 243/6/3 242/6/3
f 248/6/3 243/6/3 247/6/3
f 249/6/3 246/6/3 245/6/3
f 249/6/3 247/6/3 246/6/3
f 250/6/3 247/6/3 249/6/3
f 253/5/3 252/5/3 251/5/3
f 254/5/3 252/5/3 253/5/3
f 257/5/3 256/5/3 255/5/3
f 258/5/3 256/5/3 257/5/3
f 265/3/3 260/3/3 259/3/3
f 265/10/3 261/10/3 260/10/3
f 266/10/3 261/10/3 265/10/3
f 267/6/3 264/6/3 263/6/3
f 267/6/3 263/6/3 262/6/3
f 269/3/3 266/3/3 265/3/3
f 269/3/3 265/3/3 259/3/3
f 270/10/3 261/10/3 266/10/3
f 270/3/3 266/3/3 269/3/3
f 271/2/3 262/2/3 261/2/3
f 271/10/3 261/10/3 270/10/3
f 272/6/3 268/6/3 267/6/3
f 272/2/3 262/2/3 271/2/3
f 272/6/3 267/6/3 262/6/3
f 273/6/3 268/6/3 272/6/3
f 274/3/3 269/3/3 259/3/3
f 275/10/3 271/10/3 270/10/3
f 275/3/3 269/3/3 274/3/3
f 275/10/3 270/10/3 269/10/3
f 275/10/3 272/10/3 271/10/3
f 276/10/3 272/10/3 275/10/3
f 277/6/3 273/6/3 272/6/3
f 277/10/3 272/10/3 276/10/3
f 278/6/3 273/6/3 277/6/3
f 279/6/3 273/6/3 278/6/3
f 280/6/3 273/6/3 279/6/3
f 281/6/3 273/6/3 280/6/3
f 282/6/3 273/6/3 281/6/3
f 283/6/3 273/6/3 282/6/3
f 284/10/3 276/10/3 275/10/3
f 284/10/3 275/10/3 274/10/3
f 284/2/3 277/2/3 276/2/3
f 285/6/3 278/6/3 277/6/3
f 285/2/3 277/2/3 284/2/3
f 286/8/3 279/8/3 278/8/3
f 286/6/3 278/6/3 285/6/3
f 287/6/3 280/6/3 279/6/3
f 287/8/3 279/8/3 286/8/3
f 288/8/3 281/8/3 280/8/3
f 288/6/3 280/6/3 287/6/3
f 289/6/3 282/6/3 281/6/3
f 289/8/3 281/8/3 288/8/3
f 290/8/3 283/8/3 282/8/3
f 290/6/3 282/6/3 289/6/3
f 291/6/3 273/6/3 283/6/3
f 291/8/3 283/8/3 290/8/3
f 292/10/3 284/10/3 274/10/3
f 292/7/3 285/7/3 284/7/3
f 293/6/3 290/6/3 289/6/3
f 293/7/3 285/7/3 292/7/3
f 293/6/3 289/6/3 288/6/3
f 293/6/3 287/6/3 286/6/3
f 293/6/3 286/6/3 285/6/3
f 293/6/3 291/6/3 290/6/3
f 293/6/3 288/6/3 287/6/3
f 294/10/3 292/10/3 274/10/3
f 294/2/3 293/2/3 292/2/3
f 295/6/3 291/6/3 293/6/3
f 295/2/3 293/2/3 294/2/3
f 296/10/3 294/10/3 274/10/3
f 296/10/3 295/10/3 294/10/3
f 297/6/3 291/6/3 295/6/3
f 297/10/3 295/10/3 296/10/3
f 298/6/3 291/6/3 297/6/3
f 299/6/3 273/6/3 291/6/3
f 299/6/3 291/6/3 298/6/3
f 300/6/3 299/6/3 298/6/3
f 301/6/3 299/6/3 300/6/3
f 302/10/3 296/10/3 274/10/3
f 303/2/3 297/2/3 296/2/3
f 303/10/3 296/10/3 302/10/3
f 304/3/3 298/3/3 297/3/3
f 304/2/3 297/2/3 303/2/3
f 305/6/3 300/6/3 298/6/3
f 305/3/3 298/3/3 304/3/3
f 306/6/3 300/6/3 305/6/3
f 307/6/3 300/6/3 306/6/3
f 310/5/3 309/5/3 308/5/3
f 311/5/3 309/5/3 310/5/3
f 312/5/3 310/5/3 308/5/3
f 312/3/3 311/3/3 310/3/3
f 313/3/3 311/3/3 312/3/3
f 314/5/3 312/5/3 308/5/3
f 314/5/3 313/5/3 312/5/3
f 315/3/3 311/3/3 313/3/3
f 315/5/3 313/5/3 314/5/3
f 316/3/3 311/3/3 315/3/3
f 319/5/3 318/5/3 317/5/3
f 320/5/3 318/5/3 319/5/3
f 323/10/3 322/10/3 321/10/3
f 324/10/3 322/10/3 323/10/3
f 325/6/4 326/6/4 328/6/4
f 328/6/4 326/6/4 329/6/4
f 327/6/4 328/6/4 331/6/4
f 331/6/4 328/6/4 332/6/4
f 329/6/4 330/6/4 333/6/4
f 333/6/4 330/6/4 334/6/4
f 335/6/4 336/6/4 339/6/4
f 339/6/4 336/6/4 340/6/4
f 337/6/4 338/6/4 341/6/4
f 341/6/4 338/6/4 342/6/4
f 340/6/4 341/6/4 343/6/4
f 343/6/4 341/6/4 344/6/4
f 345/10/4 346/10/4 347/10/4
f 347/10/4 346/10/4 348/10/4
f 349/6/4 350/6/4 351/6/4
f 351/6/4 350/6/4 352/6/4
f 353/1/4 354/1/4 355/1/4
f 355/1/4 354/1/4 356/1/4
f 357/6/4 358/6/4 359/6/4
f 359/6/4 358/6/4 360/6/4
f 361/5/4 362/5/4 365/5/4
f 365/5/4 362/5/4 366/5/4
f 363/1/4 364/1/4 369/1/4
f 369/1/4 364/1/4 370/1/4
f 367/5/4 368/5/4 371/5/4
f 371/5/4 368/5/4 372/5/4
f 373/10/4 374/10/4 377/10/4
f 374/2/4 375/2/4 377/2/4
f 375/6/4 376/6/4 378/6/4
f 377/2/4 375/2/4 378/2/4
f 378/6/4 376/6/4 379/6/4
f 379/6/4 376/6/4 380/6/4
f 373/10/4 377/10/4 383/10/4
f 377/10/4 378/10/4 383/10/4
f 378/6/4 379/6/4 384/6/4
f 383/10/4 378/10/4 384/10/4
f 373/10/4 383/10/4 385/10/4
f 383/2/4 384/2/4 385/2/4
f 384/6/4 379/6/4 386/6/4
f 385/2/4 384/2/4 386/2/4
f 373/10/4 385/10/4 387/10/4
f 385/10/4 386/10/4 387/10/4
f 386/6/4 379/6/4 388/6/4
f 387/10/4 386/10/4 388/10/4
f 388/6/4 379/6/4 389/6/4
f 381/1/4 382/1/4 391/1/4
f 391/1/4 382/1/4 392/1/4
f 373/10/4 387/10/4 393/10/4
f 387/2/4 388/2/4 394/2/4
f 393/10/4 387/10/4 394/10/4
f 389/6/4 390/6/4 395/6/4
f 394/2/4 388/2/4 395/2/4
f 388/6/4 389/6/4 395/6/4
f 395/6/4 390/6/4 396/6/4
f 397/1/4 398/1/4 399/1/4
f 399/1/4 398/1/4 400/1/4
f 405/5/5 402/5/5 401/5/5
f 406/5/5 402/5/5 405/5/5
f 407/5/5 404/5/5 403/5/5
f 408/5/5 404/5/5 407/5/5
f 412/3/5 410/3/5 409/3/5
f 413/3/5 410/3/5 412/3/5
f 414/10/5 411/10/5 410/10/5
f 414/3/5 410/3/5 413/3/5
f 415/10/5 411/10/5 414/10/5
f 416/10/5 411/10/5 415/10/5
f 421/10/5 418/10/5 417/10/5
f 421/10/5 420/10/5 419/10/5
f 421/10/5 419/10/5 418/10/5
f 422/10/5 420/10/5 421/10/5
f 425/6/5 424/6/5 423/6/5
f 426/6/5 424/6/5 425/6/5
f 431/6/5 428/6/5 427/6/5
f 432/6/5 428/6/5 431/6/5
f 433/6/5 430/6/5 429/6/5
f 434/6/5 430/6/5 433/6/5
f 443/6/5 436/6/5 435/6/5
f 444/6/5 436/6/5 443/6/5
f 445/6/5 438/6/5 437/6/5
f 446/6/5 438/6/5 445/6/5
f 447/6/5 440/6/5 439/6/5
f 448/6/5 440/6/5 447/6/5
f 449/6/5 442/6/5 441/6/5
f 450/6/5 442/6/5 449/6/5
f 451/6/5 445/6/5 444/6/5
f 452/6/5 445/6/5 451/6/5
f 453/6/5 449/6/5 448/6/5
f 454/6/5 449/6/5 453/6/5
f 459/5/5 456/5/5 455/5/5
f 460/5/5 456/5/5 459/5/5
f 461/2/5 460/2/5 459/2/5
f 462/2/5 460/2/5 461/2/5
f 463/5/5 462/5/5 461/5/5
f 464/5/5 462/5/5 463/5/5
f 465/5/5 458/5/5 457/5/5
f 466/5/5 458/5/5 465/5/5
f 469/1/5 468/1/5 467/1/5
f 470/1/5 468/1/5 469/1/5
f 474/5/5 472/5/5 471/5/5
f 474/3/5 473/3/5 472/3/5
f 475/3/5 473/3/5 474/3/5
f 476/5/5 474/5/5 471/5/5
f 476/5/5 475/5/5 474/5/5
f 477/5/5 475/5/5 476/5/5
f 478/5/6 479/5/6 482/5/6
f 482/5/6 479/5/6 483/5/6
f 480/5/6 481/5/6 484/5/6
f 484/5/6 481/5/6 485/5/6
f 486/5/6 487/5/6 490/5/6
f 490/5/6 487/5/6 491/5/6
f 491/5/6 487/5/6 492/5/6
f 492/5/6 487/5/6 493/5/6
f 490/2/6 491/2/6 494/2/6
f 491/1/6 492/1/6 495/1/6
f 494/2/6 491/2/6 495/2/6
f 492/2/6 493/2/6 496/2/6
f 495/1/6 492/1/6 496/1/6
f 496/2/6 493/2/6 497/2/6
f 488/5/6 489/5/6 498/5/6
f 498/5/6 489/5/6 499/5/6
f 498/3/6 499/3/6 500/3/6
f 499/5/6 489/5/6 500/5/6
f 500/5/6 489/5/6 501/5/6
f 495/3/6 496/3/6 502/3/6
f 494/3/6 495/3/6 502/3/6
f 496/5/6 497/5/6 503/5/6
f 502/3/6 496/3/6 503/3/6
f 503/5/6 497/5/6 504/5/6
f 502/5/6 503/5/6 505/5/6
f 503/3/6 504/3/6 505/3/6
f 505/3/6 504/3/6 506/3/6
f 500/3/6 501/3/6 507/3/6
f 498/3/6 500/3/6 507/3/6
f 501/5/6 489/5/6 508/5/6
f 507/3/6 501/3/6 508/3/6
f 505/5/6 506/5/6 510/5/6
f 502/5/6 505/5/6 510/5/6
f 510/5/6 506/5/6 511/5/6
f 507/5/6 508/5/6 514/5/6
f 508/5/6 489/5/6 515/5/6
f 514/5/6 508/5/6 515/5/6
f 509/6/6 510/6/6 517/6/6
f 517/6/6 510/6/6 518/6/6
f 511/6/6 512/6/6 519/6/6
f 519/6/6 512/6/6 520/6/6
f 513/6/6 514/6/6 523/6/6
f 523/6/6 514/6/6 524/6/6
f 515/6/6 516/6/6 525/6/6
f 525/6/6 516/6/6 526/6/6
f 520/6/6 521/6/6 527/6/6
f 518/6/6 519/6/6 527/6/6
f 519/6/6 520/6/6 527/6/6
f 527/6/6 521/6/6 528/6/6
f 524/6/6 525/6/6 529/6/6
f 523/6/6 524/6/6 529/6/6
f 522/6/6 523/6/6 529/6/6
f 529/6/6 525/6/6 530/6/6
f 528/6/6 521/6/6 531/6/6
f 522/6/6 529/6/6 532/6/6
f 528/6/6 531/6/6 533/6/6
f 533/6/6 531/6/6 534/6/6
f 532/6/6 529/6/6 535/6/6
f 535/6/6 529/6/6 536/6/6
f 537/6/6 538/6/6 541/6/6
f 541/6/6 538/6/6 542/6/6
f 539/6/6 540/6/6 543/6/6
f 543/6/6 540/6/6 544/6/6
f 545/1/6 546/1/6 547/1/6
f 547/1/6 546/1/6 548/1/6
f 549/1/6 550/1/6 551/1/6
f 551/1/6 550/1/6 552/1/6
f 553/1/6 554/1/6 555/1/6
f 555/1/6 554/1/6 556/1/6
f 557/1/6 558/1/6 560/1/6
f 558/3/6 559/3/6 560/3/6
f 560/3/6 559/3/6 561/3/6
f 557/1/6 560/1/6 562/1/6
f 560/1/6 561/1/6 562/1/6
f 562/1/6 561/1/6 563/1/6
