# MagicaVoxel @ Ephtracy

# group
o 

# material
mtllib woman standing_01(e).mtl
usemtl palette

# normals
vn -1 0 0
vn 1 0 0
vn 0 0 1
vn 0 0 -1
vn 0 -1 0
vn 0 1 0

# texcoords
vt 0.0214844 0.5
vt 0.0332031 0.5
vt 0.0371094 0.5
vt 0.537109 0.5
vt 0.865234 0.5
vt 0.962891 0.5
vt 0.982422 0.5
vt 0.986328 0.5
vt 0.990234 0.5
vt 0.994141 0.5

# verts
v -0.6 0.9 -5.96046e-08
v -0.6 0.9 -0.3
v -0.6 1 -5.96046e-08
v -0.6 1 -0.3
v -0.6 1.1 -5.96046e-08
v -0.6 1.1 -0.3
v -0.6 2.1 -5.96046e-08
v -0.6 2.1 -0.3
v -0.5 0.4 -5.96046e-08
v -0.5 0.4 -0.1
v -0.5 0.5 -0.1
v -0.5 0.5 -0.2
v -0.5 0.9 -5.96046e-08
v -0.5 0.9 -0.2
v -0.4 0 0.2
v -0.4 0 -0.3
v -0.4 0.1 0.2
v -0.4 0.1 -5.96046e-08
v -0.4 0.4 -5.96046e-08
v -0.4 0.4 -0.1
v -0.4 0.4 -0.3
v -0.4 0.5 -0.1
v -0.4 0.5 -0.2
v -0.4 0.5 -0.3
v -0.4 0.6 -0.2
v -0.4 0.6 -0.3
v -0.4 0.7 -0.2
v -0.4 0.7 -0.3
v -0.4 0.9 -0.2
v -0.4 0.9 -0.3
v -0.3 2.4 -0.1
v -0.3 2.4 -0.2
v -0.3 2.6 -0.1
v -0.3 2.6 -0.2
v -0.2 2.3 0.0999999
v -0.2 2.3 -0.4
v -0.2 2.4 -0.1
v -0.2 2.4 -0.2
v -0.2 2.4 -0.4
v -0.2 2.6 0.0999999
v -0.2 2.6 -0.1
v -0.2 2.6 -0.2
v -0.2 2.8 0.0999999
v -0.2 2.8 -0.4
v -0.0999999 2.1 -5.96046e-08
v -0.0999999 2.1 -0.3
v -0.0999999 2.3 -5.96046e-08
v -0.0999999 2.3 -0.3
v -0.0999999 2.3 -0.4
v -0.0999999 2.3 -0.6
v -0.0999999 2.4 -0.4
v -0.0999999 2.6 -0.4
v -0.0999999 2.6 -0.6
v 5.96046e-08 2.5 0.2
v 5.96046e-08 2.5 0.0999999
v 5.96046e-08 2.6 0.2
v 5.96046e-08 2.6 0.0999999
v 0.2 0 0.2
v 0.2 0 -0.3
v 0.2 0.1 0.2
v 0.2 0.1 -5.96046e-08
v 0.2 0.4 -5.96046e-08
v 0.2 0.4 -0.3
v 0.2 0.8 -5.96046e-08
v 0.2 0.8 -0.3
v -0.0999999 0 0.2
v -0.0999999 0 -0.3
v -0.0999999 0.1 0.2
v -0.0999999 0.1 -5.96046e-08
v -0.0999999 0.4 -5.96046e-08
v -0.0999999 0.4 -0.3
v -0.0999999 0.5 -5.96046e-08
v -0.0999999 0.5 -0.3
v -0.0999999 0.6 -5.96046e-08
v -0.0999999 0.6 -0.3
v -0.0999999 0.7 -5.96046e-08
v -0.0999999 0.7 -0.3
v -0.0999999 0.8 -5.96046e-08
v -0.0999999 0.8 -0.3
v 0.1 2.5 0.2
v 0.1 2.5 0.0999999
v 0.1 2.6 0.2
v 0.1 2.6 0.0999999
v 0.2 2.1 -5.96046e-08
v 0.2 2.1 -0.3
v 0.2 2.3 -5.96046e-08
v 0.2 2.3 -0.3
v 0.2 2.3 -0.4
v 0.2 2.3 -0.6
v 0.2 2.4 -0.4
v 0.2 2.6 -0.4
v 0.2 2.6 -0.6
v 0.3 2.3 0.0999999
v 0.3 2.3 -0.4
v 0.3 2.4 -0.1
v 0.3 2.4 -0.2
v 0.3 2.4 -0.4
v 0.3 2.6 0.0999999
v 0.3 2.6 -0.1
v 0.3 2.6 -0.2
v 0.3 2.8 0.0999999
v 0.3 2.8 -0.4
v 0.4 2.4 -0.1
v 0.4 2.4 -0.2
v 0.4 2.6 -0.1
v 0.4 2.6 -0.2
v 0.5 0 0.2
v 0.5 0 -0.3
v 0.5 0.1 0.2
v 0.5 0.1 -5.96046e-08
v 0.5 0.4 -5.96046e-08
v 0.5 0.4 -0.3
v 0.5 0.9 -5.96046e-08
v 0.5 0.9 -0.3
v 0.7 0.9 -5.96046e-08
v 0.7 0.9 -0.3
v 0.7 1 -5.96046e-08
v 0.7 1 -0.3
v 0.7 1.1 -5.96046e-08
v 0.7 1.1 -0.3
v 0.7 2.1 -5.96046e-08
v 0.7 2.1 -0.3
v -0.4 0 0.2
v -0.4 0.1 0.2
v -0.0999999 0 0.2
v -0.0999999 0.1 0.2
v 5.96046e-08 2.5 0.2
v 5.96046e-08 2.6 0.2
v 0.1 2.5 0.2
v 0.1 2.6 0.2
v 0.2 0 0.2
v 0.2 0.1 0.2
v 0.5 0 0.2
v 0.5 0.1 0.2
v -0.2 2.3 0.0999999
v -0.2 2.6 0.0999999
v -0.2 2.8 0.0999999
v 5.96046e-08 2.5 0.0999999
v 5.96046e-08 2.6 0.0999999
v 0.1 2.5 0.0999999
v 0.1 2.6 0.0999999
v 0.1 2.7 0.0999999
v 0.2 2.6 0.0999999
v 0.2 2.7 0.0999999
v 0.3 2.3 0.0999999
v 0.3 2.6 0.0999999
v 0.3 2.8 0.0999999
v -0.6 0.9 -5.96046e-08
v -0.6 1 -5.96046e-08
v -0.6 1.1 -5.96046e-08
v -0.6 2.1 -5.96046e-08
v -0.5 0.4 -5.96046e-08
v -0.5 0.9 -5.96046e-08
v -0.4 0.1 -5.96046e-08
v -0.4 0.4 -5.96046e-08
v -0.4 0.5 -5.96046e-08
v -0.4 0.6 -5.96046e-08
v -0.4 0.7 -5.96046e-08
v -0.4 0.9 -5.96046e-08
v -0.4 1 -5.96046e-08
v -0.4 1.1 -5.96046e-08
v -0.4 1.2 -5.96046e-08
v -0.4 1.7 -5.96046e-08
v -0.3 0.5 -5.96046e-08
v -0.3 0.6 -5.96046e-08
v -0.3 0.7 -5.96046e-08
v -0.3 0.8 -5.96046e-08
v -0.3 0.9 -5.96046e-08
v -0.3 1 -5.96046e-08
v -0.3 1.7 -5.96046e-08
v -0.3 1.8 -5.96046e-08
v -0.2 0.5 -5.96046e-08
v -0.2 0.6 -5.96046e-08
v -0.2 0.7 -5.96046e-08
v -0.2 0.8 -5.96046e-08
v -0.2 0.9 -5.96046e-08
v -0.2 1 -5.96046e-08
v -0.2 1.8 -5.96046e-08
v -0.2 2.1 -5.96046e-08
v -0.0999999 0.1 -5.96046e-08
v -0.0999999 0.4 -5.96046e-08
v -0.0999999 0.5 -5.96046e-08
v -0.0999999 0.6 -5.96046e-08
v -0.0999999 0.7 -5.96046e-08
v -0.0999999 0.8 -5.96046e-08
v -0.0999999 1 -5.96046e-08
v -0.0999999 1.2 -5.96046e-08
v -0.0999999 1.9 -5.96046e-08
v -0.0999999 2.1 -5.96046e-08
v -0.0999999 2.3 -5.96046e-08
v 0.2 0.1 -5.96046e-08
v 0.2 0.4 -5.96046e-08
v 0.2 0.8 -5.96046e-08
v 0.2 1 -5.96046e-08
v 0.2 1.2 -5.96046e-08
v 0.2 1.9 -5.96046e-08
v 0.2 2.1 -5.96046e-08
v 0.2 2.3 -5.96046e-08
v 0.3 1.8 -5.96046e-08
v 0.3 2.1 -5.96046e-08
v 0.4 1.7 -5.96046e-08
v 0.4 1.8 -5.96046e-08
v 0.5 0.1 -5.96046e-08
v 0.5 0.4 -5.96046e-08
v 0.5 0.9 -5.96046e-08
v 0.5 1 -5.96046e-08
v 0.5 1.1 -5.96046e-08
v 0.5 1.2 -5.96046e-08
v 0.5 1.7 -5.96046e-08
v 0.7 0.9 -5.96046e-08
v 0.7 1 -5.96046e-08
v 0.7 1.1 -5.96046e-08
v 0.7 2.1 -5.96046e-08
v -0.3 2.4 -0.1
v -0.3 2.6 -0.1
v -0.2 2.4 -0.1
v -0.2 2.6 -0.1
v 0.3 2.4 -0.1
v 0.3 2.6 -0.1
v 0.4 2.4 -0.1
v 0.4 2.6 -0.1
v -0.5 0.4 -0.1
v -0.5 0.5 -0.1
v -0.4 0.4 -0.1
v -0.4 0.5 -0.1
v -0.5 0.5 -0.2
v -0.5 0.9 -0.2
v -0.4 0.5 -0.2
v -0.4 0.6 -0.2
v -0.4 0.7 -0.2
v -0.4 0.9 -0.2
v -0.3 2.4 -0.2
v -0.3 2.6 -0.2
v -0.2 2.4 -0.2
v -0.2 2.6 -0.2
v 0.3 2.4 -0.2
v 0.3 2.6 -0.2
v 0.4 2.4 -0.2
v 0.4 2.6 -0.2
v -0.6 0.9 -0.3
v -0.6 1 -0.3
v -0.6 1.1 -0.3
v -0.6 2.1 -0.3
v -0.4 0 -0.3
v -0.4 0.4 -0.3
v -0.4 0.5 -0.3
v -0.4 0.6 -0.3
v -0.4 0.7 -0.3
v -0.4 0.9 -0.3
v -0.4 1 -0.3
v -0.4 1.1 -0.3
v -0.4 1.2 -0.3
v -0.4 1.7 -0.3
v -0.3 0.8 -0.3
v -0.3 0.9 -0.3
v -0.3 1 -0.3
v -0.3 1.7 -0.3
v -0.3 1.8 -0.3
v -0.2 0.9 -0.3
v -0.2 1 -0.3
v -0.2 1.8 -0.3
v -0.2 2.1 -0.3
v -0.0999999 0 -0.3
v -0.0999999 0.4 -0.3
v -0.0999999 0.5 -0.3
v -0.0999999 0.6 -0.3
v -0.0999999 0.7 -0.3
v -0.0999999 0.8 -0.3
v -0.0999999 1.9 -0.3
v -0.0999999 2.1 -0.3
v -0.0999999 2.3 -0.3
v 0.2 0 -0.3
v 0.2 0.4 -0.3
v 0.2 0.8 -0.3
v 0.2 1.9 -0.3
v 0.2 2.1 -0.3
v 0.2 2.3 -0.3
v 0.3 1.8 -0.3
v 0.3 2.1 -0.3
v 0.4 1.7 -0.3
v 0.4 1.8 -0.3
v 0.5 0 -0.3
v 0.5 0.4 -0.3
v 0.5 0.9 -0.3
v 0.5 1 -0.3
v 0.5 1.1 -0.3
v 0.5 1.2 -0.3
v 0.5 1.7 -0.3
v 0.7 0.9 -0.3
v 0.7 1 -0.3
v 0.7 1.1 -0.3
v 0.7 2.1 -0.3
v -0.2 2.3 -0.4
v -0.2 2.4 -0.4
v -0.2 2.8 -0.4
v -0.0999999 2.3 -0.4
v -0.0999999 2.4 -0.4
v -0.0999999 2.6 -0.4
v 0.2 2.3 -0.4
v 0.2 2.4 -0.4
v 0.2 2.6 -0.4
v 0.3 2.3 -0.4
v 0.3 2.4 -0.4
v 0.3 2.8 -0.4
v -0.0999999 2.3 -0.6
v -0.0999999 2.6 -0.6
v 0.2 2.3 -0.6
v 0.2 2.6 -0.6
v -0.4 0 0.2
v -0.0999999 0 0.2
v 0.2 0 0.2
v 0.5 0 0.2
v -0.3 0 -0.1
v -0.2 0 -0.1
v -0.3 0 -0.2
v -0.2 0 -0.2
v -0.4 0 -0.3
v -0.0999999 0 -0.3
v 0.2 0 -0.3
v 0.5 0 -0.3
v -0.5 0.4 -5.96046e-08
v -0.4 0.4 -5.96046e-08
v -0.5 0.4 -0.1
v -0.4 0.4 -0.1
v -0.5 0.5 -0.1
v -0.4 0.5 -0.1
v -0.5 0.5 -0.2
v -0.4 0.5 -0.2
v -0.0999999 0.8 -5.96046e-08
v 0.2 0.8 -5.96046e-08
v -0.0999999 0.8 -0.3
v 0.2 0.8 -0.3
v -0.6 0.9 -5.96046e-08
v -0.5 0.9 -5.96046e-08
v 0.5 0.9 -5.96046e-08
v 0.7 0.9 -5.96046e-08
v -0.5 0.9 -0.2
v -0.4 0.9 -0.2
v -0.6 0.9 -0.3
v -0.4 0.9 -0.3
v 0.5 0.9 -0.3
v 0.7 0.9 -0.3
v -0.2 2.3 0.0999999
v 0.3 2.3 0.0999999
v -0.0999999 2.3 -5.96046e-08
v 0.2 2.3 -5.96046e-08
v -0.0999999 2.3 -0.3
v 0.2 2.3 -0.3
v -0.2 2.3 -0.4
v -0.0999999 2.3 -0.4
v 0.2 2.3 -0.4
v 0.3 2.3 -0.4
v -0.0999999 2.3 -0.6
v 0.2 2.3 -0.6
v -0.3 2.4 -0.1
v -0.2 2.4 -0.1
v 0.3 2.4 -0.1
v 0.4 2.4 -0.1
v -0.3 2.4 -0.2
v -0.2 2.4 -0.2
v 0.3 2.4 -0.2
v 0.4 2.4 -0.2
v 5.96046e-08 2.5 0.2
v 0.1 2.5 0.2
v 5.96046e-08 2.5 0.0999999
v 0.1 2.5 0.0999999
v -0.4 0.1 0.2
v -0.0999999 0.1 0.2
v 0.2 0.1 0.2
v 0.5 0.1 0.2
v -0.4 0.1 -5.96046e-08
v -0.0999999 0.1 -5.96046e-08
v 0.2 0.1 -5.96046e-08
v 0.5 0.1 -5.96046e-08
v -0.6 2.1 -5.96046e-08
v -0.2 2.1 -5.96046e-08
v -0.0999999 2.1 -5.96046e-08
v 0.2 2.1 -5.96046e-08
v 0.3 2.1 -5.96046e-08
v 0.7 2.1 -5.96046e-08
v -0.6 2.1 -0.3
v -0.2 2.1 -0.3
v -0.0999999 2.1 -0.3
v 0.2 2.1 -0.3
v 0.3 2.1 -0.3
v 0.7 2.1 -0.3
v 5.96046e-08 2.6 0.2
v 0.1 2.6 0.2
v 5.96046e-08 2.6 0.0999999
v 0.1 2.6 0.0999999
v -0.3 2.6 -0.1
v -0.2 2.6 -0.1
v 0.3 2.6 -0.1
v 0.4 2.6 -0.1
v -0.3 2.6 -0.2
v -0.2 2.6 -0.2
v 0.3 2.6 -0.2
v 0.4 2.6 -0.2
v -0.0999999 2.6 -0.4
v 0.2 2.6 -0.4
v -0.0999999 2.6 -0.6
v 0.2 2.6 -0.6
v -0.2 2.8 0.0999999
v 0.3 2.8 0.0999999
v -0.2 2.8 -0.4
v 0.3 2.8 -0.4

# faces
f 3/2/1 2/2/1 1/2/1
f 4/2/1 2/2/1 3/2/1
f 5/9/1 4/9/1 3/9/1
f 6/9/1 4/9/1 5/9/1
f 7/2/1 6/2/1 5/2/1
f 8/2/1 6/2/1 7/2/1
f 11/4/1 10/4/1 9/4/1
f 13/4/1 11/4/1 9/4/1
f 13/4/1 12/4/1 11/4/1
f 14/4/1 12/4/1 13/4/1
f 17/10/1 16/10/1 15/10/1
f 18/10/1 16/10/1 17/10/1
f 19/10/1 16/10/1 18/10/1
f 20/10/1 16/10/1 19/10/1
f 21/10/1 16/10/1 20/10/1
f 22/8/1 21/8/1 20/8/1
f 23/8/1 21/8/1 22/8/1
f 24/8/1 21/8/1 23/8/1
f 25/4/1 24/4/1 23/4/1
f 26/4/1 24/4/1 25/4/1
f 27/8/1 26/8/1 25/8/1
f 28/8/1 26/8/1 27/8/1
f 29/4/1 28/4/1 27/4/1
f 30/4/1 28/4/1 29/4/1
f 33/2/1 32/2/1 31/2/1
f 34/2/1 32/2/1 33/2/1
f 37/2/1 36/2/1 35/2/1
f 38/2/1 36/2/1 37/2/1
f 39/2/1 36/2/1 38/2/1
f 40/2/1 37/2/1 35/2/1
f 41/2/1 37/2/1 40/2/1
f 42/5/1 39/5/1 38/5/1
f 43/5/1 41/5/1 40/5/1
f 43/5/1 42/5/1 41/5/1
f 44/5/1 39/5/1 42/5/1
f 44/5/1 42/5/1 43/5/1
f 47/2/1 46/2/1 45/2/1
f 48/2/1 46/2/1 47/2/1
f 51/5/1 50/5/1 49/5/1
f 52/5/1 50/5/1 51/5/1
f 53/5/1 50/5/1 52/5/1
f 56/2/1 55/2/1 54/2/1
f 57/2/1 55/2/1 56/2/1
f 60/10/1 59/10/1 58/10/1
f 61/10/1 59/10/1 60/10/1
f 62/10/1 59/10/1 61/10/1
f 63/10/1 59/10/1 62/10/1
f 64/8/1 63/8/1 62/8/1
f 65/8/1 63/8/1 64/8/1
f 66/10/2 67/10/2 68/10/2
f 68/10/2 67/10/2 69/10/2
f 69/10/2 67/10/2 70/10/2
f 70/10/2 67/10/2 71/10/2
f 70/8/2 71/8/2 72/8/2
f 72/8/2 71/8/2 73/8/2
f 72/4/2 73/4/2 74/4/2
f 74/4/2 73/4/2 75/4/2
f 74/8/2 75/8/2 76/8/2
f 76/8/2 75/8/2 77/8/2
f 76/4/2 77/4/2 78/4/2
f 78/4/2 77/4/2 79/4/2
f 80/2/2 81/2/2 82/2/2
f 82/2/2 81/2/2 83/2/2
f 84/2/2 85/2/2 86/2/2
f 86/2/2 85/2/2 87/2/2
f 88/5/2 89/5/2 90/5/2
f 90/5/2 89/5/2 91/5/2
f 91/5/2 89/5/2 92/5/2
f 93/2/2 94/2/2 95/2/2
f 95/2/2 94/2/2 96/2/2
f 96/2/2 94/2/2 97/2/2
f 93/2/2 95/2/2 98/2/2
f 98/2/2 95/2/2 99/2/2
f 96/5/2 97/5/2 100/5/2
f 98/5/2 99/5/2 101/5/2
f 99/5/2 100/5/2 101/5/2
f 100/5/2 97/5/2 102/5/2
f 101/5/2 100/5/2 102/5/2
f 103/2/2 104/2/2 105/2/2
f 105/2/2 104/2/2 106/2/2
f 107/10/2 108/10/2 109/10/2
f 109/10/2 108/10/2 110/10/2
f 110/10/2 108/10/2 111/10/2
f 111/10/2 108/10/2 112/10/2
f 111/8/2 112/8/2 113/8/2
f 113/8/2 112/8/2 114/8/2
f 115/2/2 116/2/2 117/2/2
f 117/2/2 116/2/2 118/2/2
f 117/9/2 118/9/2 119/9/2
f 119/9/2 118/9/2 120/9/2
f 119/2/2 120/2/2 121/2/2
f 121/2/2 120/2/2 122/2/2
f 125/10/3 124/10/3 123/10/3
f 126/10/3 124/10/3 125/10/3
f 129/2/3 128/2/3 127/2/3
f 130/2/3 128/2/3 129/2/3
f 133/10/3 132/10/3 131/10/3
f 134/10/3 132/10/3 133/10/3
f 138/2/3 136/2/3 135/2/3
f 139/5/3 137/5/3 136/5/3
f 139/2/3 136/2/3 138/2/3
f 140/2/3 138/2/3 135/2/3
f 141/5/3 137/5/3 139/5/3
f 142/5/3 137/5/3 141/5/3
f 143/2/3 141/2/3 140/2/3
f 143/2/3 142/2/3 141/2/3
f 144/5/3 137/5/3 142/5/3
f 144/2/3 142/2/3 143/2/3
f 145/2/3 140/2/3 135/2/3
f 145/2/3 143/2/3 140/2/3
f 146/5/3 144/5/3 143/5/3
f 146/2/3 143/2/3 145/2/3
f 147/5/3 137/5/3 144/5/3
f 147/5/3 144/5/3 146/5/3
f 153/2/3 149/2/3 148/2/3
f 155/4/3 153/4/3 152/4/3
f 156/4/3 153/4/3 155/4/3
f 157/4/3 153/4/3 156/4/3
f 158/4/3 153/4/3 157/4/3
f 159/2/3 149/2/3 153/2/3
f 159/4/3 153/4/3 158/4/3
f 160/9/3 150/9/3 149/9/3
f 160/2/3 149/2/3 159/2/3
f 161/2/3 151/2/3 150/2/3
f 161/9/3 150/9/3 160/9/3
f 162/2/3 151/2/3 161/2/3
f 163/2/3 151/2/3 162/2/3
f 164/8/3 156/8/3 155/8/3
f 164/4/3 157/4/3 156/4/3
f 165/8/3 158/8/3 157/8/3
f 165/4/3 157/4/3 164/4/3
f 166/4/3 159/4/3 158/4/3
f 166/8/3 158/8/3 165/8/3
f 167/4/3 159/4/3 166/4/3
f 168/8/3 160/8/3 159/8/3
f 168/4/3 159/4/3 167/4/3
f 169/4/3 161/4/3 160/4/3
f 169/8/3 160/8/3 168/8/3
f 169/4/3 162/4/3 161/4/3
f 170/2/3 151/2/3 163/2/3
f 170/6/3 163/6/3 162/6/3
f 171/2/3 151/2/3 170/2/3
f 172/7/3 165/7/3 164/7/3
f 172/8/3 164/8/3 155/8/3
f 173/8/3 166/8/3 165/8/3
f 173/7/3 165/7/3 172/7/3
f 174/7/3 167/7/3 166/7/3
f 174/8/3 166/8/3 173/8/3
f 175/8/3 168/8/3 167/8/3
f 175/7/3 167/7/3 174/7/3
f 176/4/3 169/4/3 168/4/3
f 176/8/3 168/8/3 175/8/3
f 177/4/3 162/4/3 169/4/3
f 177/4/3 169/4/3 176/4/3
f 178/2/3 151/2/3 171/2/3
f 178/6/3 171/6/3 170/6/3
f 179/2/3 151/2/3 178/2/3
f 180/10/3 155/10/3 154/10/3
f 181/8/3 172/8/3 155/8/3
f 181/10/3 155/10/3 180/10/3
f 182/4/3 173/4/3 172/4/3
f 182/8/3 172/8/3 181/8/3
f 183/8/3 174/8/3 173/8/3
f 183/4/3 173/4/3 182/4/3
f 184/4/3 175/4/3 174/4/3
f 184/8/3 174/8/3 183/8/3
f 185/8/3 177/8/3 176/8/3
f 185/4/3 175/4/3 184/4/3
f 185/8/3 176/8/3 175/8/3
f 186/4/3 162/4/3 177/4/3
f 186/8/3 177/8/3 185/8/3
f 187/6/3 179/6/3 178/6/3
f 187/4/3 162/4/3 186/4/3
f 187/6/3 170/6/3 162/6/3
f 187/6/3 178/6/3 170/6/3
f 188/6/3 179/6/3 187/6/3
f 189/6/3 179/6/3 188/6/3
f 193/8/3 186/8/3 185/8/3
f 194/1/3 187/1/3 186/1/3
f 194/8/3 186/8/3 193/8/3
f 195/6/3 188/6/3 187/6/3
f 195/1/3 187/1/3 194/1/3
f 196/2/3 190/2/3 189/2/3
f 196/6/3 188/6/3 195/6/3
f 196/2/3 189/2/3 188/2/3
f 197/2/3 190/2/3 196/2/3
f 198/2/3 190/2/3 197/2/3
f 199/6/3 196/6/3 195/6/3
f 199/6/3 197/6/3 196/6/3
f 200/6/3 197/6/3 199/6/3
f 201/6/3 199/6/3 195/6/3
f 202/2/3 200/2/3 199/2/3
f 202/6/3 199/6/3 201/6/3
f 203/10/3 192/10/3 191/10/3
f 204/8/3 194/8/3 193/8/3
f 204/10/3 192/10/3 203/10/3
f 204/8/3 193/8/3 192/8/3
f 205/8/3 194/8/3 204/8/3
f 206/4/3 195/4/3 194/4/3
f 206/8/3 194/8/3 205/8/3
f 207/4/3 195/4/3 206/4/3
f 208/6/3 201/6/3 195/6/3
f 208/4/3 195/4/3 207/4/3
f 209/2/3 202/2/3 201/2/3
f 209/6/3 201/6/3 208/6/3
f 210/2/3 206/2/3 205/2/3
f 211/9/3 207/9/3 206/9/3
f 211/2/3 206/2/3 210/2/3
f 212/2/3 208/2/3 207/2/3
f 212/9/3 207/9/3 211/9/3
f 212/2/3 209/2/3 208/2/3
f 213/2/3 202/2/3 209/2/3
f 213/2/3 209/2/3 212/2/3
f 213/2/3 200/2/3 202/2/3
f 216/2/3 215/2/3 214/2/3
f 217/2/3 215/2/3 216/2/3
f 220/2/3 219/2/3 218/2/3
f 221/2/3 219/2/3 220/2/3
f 222/4/4 223/4/4 224/4/4
f 224/4/4 223/4/4 225/4/4
f 226/4/4 227/4/4 228/4/4
f 228/4/4 227/4/4 229/4/4
f 229/4/4 227/4/4 230/4/4
f 230/4/4 227/4/4 231/4/4
f 232/2/4 233/2/4 234/2/4
f 234/2/4 233/2/4 235/2/4
f 236/2/4 237/2/4 238/2/4
f 238/2/4 237/2/4 239/2/4
f 240/2/4 241/2/4 249/2/4
f 241/9/4 242/9/4 250/9/4
f 249/2/4 241/2/4 250/2/4
f 242/2/4 243/2/4 251/2/4
f 250/9/4 242/9/4 251/9/4
f 251/2/4 243/2/4 252/2/4
f 252/2/4 243/2/4 253/2/4
f 248/4/4 249/4/4 254/4/4
f 249/8/4 250/8/4 255/8/4
f 254/4/4 249/4/4 255/4/4
f 250/4/4 251/4/4 256/4/4
f 255/8/4 250/8/4 256/8/4
f 251/4/4 252/4/4 256/4/4
f 253/2/4 243/2/4 257/2/4
f 252/6/4 253/6/4 257/6/4
f 257/2/4 243/2/4 258/2/4
f 254/8/4 255/8/4 259/8/4
f 255/4/4 256/4/4 259/4/4
f 256/4/4 252/4/4 260/4/4
f 259/4/4 256/4/4 260/4/4
f 258/2/4 243/2/4 261/2/4
f 257/6/4 258/6/4 261/6/4
f 261/2/4 243/2/4 262/2/4
f 244/10/4 245/10/4 263/10/4
f 245/8/4 246/8/4 264/8/4
f 263/10/4 245/10/4 264/10/4
f 246/4/4 247/4/4 265/4/4
f 264/8/4 246/8/4 265/8/4
f 247/8/4 248/8/4 266/8/4
f 265/4/4 247/4/4 266/4/4
f 248/4/4 254/4/4 267/4/4
f 266/8/4 248/8/4 267/8/4
f 254/8/4 259/8/4 268/8/4
f 267/4/4 254/4/4 268/4/4
f 259/8/4 260/8/4 268/8/4
f 261/6/4 262/6/4 269/6/4
f 269/6/4 262/6/4 270/6/4
f 268/8/4 260/8/4 274/8/4
f 270/2/4 271/2/4 275/2/4
f 261/6/4 269/6/4 275/6/4
f 269/2/4 270/2/4 275/2/4
f 275/2/4 271/2/4 276/2/4
f 276/2/4 271/2/4 277/2/4
f 257/6/4 261/6/4 278/6/4
f 261/6/4 275/6/4 278/6/4
f 275/6/4 276/6/4 278/6/4
f 278/6/4 276/6/4 279/6/4
f 252/6/4 257/6/4 280/6/4
f 257/6/4 278/6/4 280/6/4
f 278/2/4 279/2/4 281/2/4
f 280/6/4 278/6/4 281/6/4
f 272/10/4 273/10/4 282/10/4
f 273/8/4 274/8/4 283/8/4
f 282/10/4 273/10/4 283/10/4
f 274/8/4 260/8/4 284/8/4
f 283/8/4 274/8/4 284/8/4
f 260/4/4 252/4/4 285/4/4
f 284/8/4 260/8/4 285/8/4
f 285/4/4 252/4/4 286/4/4
f 252/6/4 280/6/4 287/6/4
f 286/4/4 252/4/4 287/4/4
f 280/2/4 281/2/4 288/2/4
f 287/6/4 280/6/4 288/6/4
f 284/2/4 285/2/4 289/2/4
f 285/9/4 286/9/4 290/9/4
f 289/2/4 285/2/4 290/2/4
f 287/2/4 288/2/4 291/2/4
f 290/9/4 286/9/4 291/9/4
f 286/2/4 287/2/4 291/2/4
f 288/2/4 281/2/4 292/2/4
f 291/2/4 288/2/4 292/2/4
f 281/2/4 279/2/4 292/2/4
f 293/2/4 294/2/4 296/2/4
f 294/5/4 295/5/4 297/5/4
f 296/2/4 294/2/4 297/2/4
f 297/5/4 295/5/4 298/5/4
f 298/5/4 295/5/4 301/5/4
f 299/2/4 300/2/4 302/2/4
f 300/5/4 301/5/4 303/5/4
f 302/2/4 300/2/4 303/2/4
f 301/5/4 295/5/4 304/5/4
f 303/5/4 301/5/4 304/5/4
f 305/5/4 306/5/4 307/5/4
f 307/5/4 306/5/4 308/5/4
f 313/10/5 310/10/5 309/10/5
f 314/10/5 310/10/5 313/10/5
f 315/10/5 313/10/5 309/10/5
f 315/8/5 314/8/5 313/8/5
f 316/10/5 310/10/5 314/10/5
f 316/8/5 314/8/5 315/8/5
f 317/10/5 315/10/5 309/10/5
f 317/10/5 316/10/5 315/10/5
f 318/10/5 310/10/5 316/10/5
f 318/10/5 316/10/5 317/10/5
f 319/10/5 312/10/5 311/10/5
f 320/10/5 312/10/5 319/10/5
f 323/4/5 322/4/5 321/4/5
f 324/4/5 322/4/5 323/4/5
f 327/4/5 326/4/5 325/4/5
f 328/4/5 326/4/5 327/4/5
f 331/8/5 330/8/5 329/8/5
f 332/8/5 330/8/5 331/8/5
f 337/2/5 334/2/5 333/2/5
f 339/2/5 337/2/5 333/2/5
f 339/2/5 338/2/5 337/2/5
f 340/2/5 338/2/5 339/2/5
f 341/2/5 336/2/5 335/2/5
f 342/2/5 336/2/5 341/2/5
f 345/2/5 344/2/5 343/2/5
f 346/2/5 344/2/5 345/2/5
f 347/2/5 345/2/5 343/2/5
f 348/2/5 344/2/5 346/2/5
f 349/2/5 347/2/5 343/2/5
f 350/3/5 348/3/5 347/3/5
f 350/2/5 347/2/5 349/2/5
f 351/2/5 344/2/5 348/2/5
f 351/3/5 348/3/5 350/3/5
f 352/2/5 344/2/5 351/2/5
f 353/5/5 351/5/5 350/5/5
f 354/5/5 351/5/5 353/5/5
f 359/2/5 356/2/5 355/2/5
f 360/2/5 356/2/5 359/2/5
f 361/2/5 358/2/5 357/2/5
f 362/2/5 358/2/5 361/2/5
f 365/2/5 364/2/5 363/2/5
f 366/2/5 364/2/5 365/2/5
f 367/10/6 368/10/6 371/10/6
f 371/10/6 368/10/6 372/10/6
f 369/10/6 370/10/6 373/10/6
f 373/10/6 370/10/6 374/10/6
f 375/2/6 376/2/6 381/2/6
f 376/6/6 377/6/6 382/6/6
f 381/2/6 376/2/6 382/2/6
f 382/6/6 377/6/6 383/6/6
f 378/6/6 379/6/6 384/6/6
f 379/2/6 380/2/6 385/2/6
f 384/6/6 379/6/6 385/6/6
f 385/2/6 380/2/6 386/2/6
f 387/2/6 388/2/6 389/2/6
f 389/2/6 388/2/6 390/2/6
f 391/2/6 392/2/6 395/2/6
f 395/2/6 392/2/6 396/2/6
f 393/2/6 394/2/6 397/2/6
f 397/2/6 394/2/6 398/2/6
f 399/5/6 400/5/6 401/5/6
f 401/5/6 400/5/6 402/5/6
f 403/5/6 404/5/6 405/5/6
f 405/5/6 404/5/6 406/5/6
